<?xml version="1.0" standalone="no"?>
<!DOCTYPE svg PUBLIC "-//W3C//DTD SVG 20010904//EN"
 "http://www.w3.org/TR/2001/REC-SVG-20010904/DTD/svg10.dtd">
<svg version="1.0" xmlns="http://www.w3.org/2000/svg"
 width="1070.000000pt" height="1070.000000pt" viewBox="0 0 1070.000000 1070.000000"
 preserveAspectRatio="xMidYMid meet">
<metadata>
Created by potrace 1.11, written by Peter Selinger 2001-2013
</metadata>
<g transform="translate(0.000000,1070.000000) scale(0.100000,-0.100000)"
fill="#000000" stroke="none">
<path d="M1534 10685 c-196 -25 -417 -91 -573 -170 -439 -220 -768 -598 -917
-1053 l-44 -132 0 -4035 0 -4034 39 -118 c92 -281 230 -503 440 -713 173 -172
355 -297 566 -387 l100 -43 4205 0 4205 0 110 48 c469 203 836 605 995 1092
l40 121 0 4035 0 4035 -45 135 c-196 587 -681 1034 -1277 1179 -238 58 -15 55
-4043 54 -2971 -1 -3720 -4 -3801 -14z"/>
</g>
</svg>
